<?xml version="1.0" encoding="UTF-8" standalone="no"?>
<svg
        xmlns:dc="http://purl.org/dc/elements/1.1/"
        xmlns:cc="http://creativecommons.org/ns#"
        xmlns:rdf="http://www.w3.org/1999/02/22-rdf-syntax-ns#"
        xmlns="http://www.w3.org/2000/svg"
        xmlns:sodipodi="http://sodipodi.sourceforge.net/DTD/sodipodi-0.dtd"
        xmlns:inkscape="http://www.inkscape.org/namespaces/inkscape"
        width="123.97619mm"
        height="123.97619mm"
        viewBox="0 0 123.97619 123.97619"
        version="1.1"
        id="svg8"
        inkscape:version="1.0.1 (3bc2e813f5, 2020-09-07)"
        sodipodi:docname="logo.svg">
  <defs
          id="defs2"/>
  <sodipodi:namedview
          id="base"
          pagecolor="#ffffff"
          bordercolor="#666666"
          borderopacity="1.0"
          inkscape:pageopacity="0.0"
          inkscape:pageshadow="2"
          inkscape:zoom="0.98994949"
          inkscape:cx="293.71743"
          inkscape:cy="199.4321"
          inkscape:document-units="mm"
          inkscape:current-layer="layer1"
          inkscape:document-rotation="0"
          showgrid="false"
          fit-margin-top="0"
          fit-margin-left="0"
          fit-margin-right="0"
          fit-margin-bottom="0"
          inkscape:window-width="1920"
          inkscape:window-height="1017"
          inkscape:window-x="1906"
          inkscape:window-y="1072"
          inkscape:window-maximized="1"/>
  <metadata
          id="metadata5">
    <rdf:RDF>
      <cc:Work
              rdf:about="">
        <dc:format>image/svg+xml</dc:format>
        <dc:type
                rdf:resource="http://purl.org/dc/dcmitype/StillImage"/>
        <dc:title></dc:title>
      </cc:Work>
    </rdf:RDF>
  </metadata>
  <g
          inkscape:label="Layer 1"
          inkscape:groupmode="layer"
          id="layer1"
          transform="translate(-56.129467,-66.145836)">
    <rect
            style="fill:#1a1a1a;fill-rule:evenodd;stroke-width:0.264583"
            id="rect10"
            width="123.97619"
            height="123.97619"
            x="56.129467"
            y="66.145836"
            ry="14.000853"/>
    <g
            id="g975"
            transform="matrix(0.47721909,0,0,0.47721909,-39.917743,-66.20077)">
      <path
              style="fill:#fafafa;fill-opacity:1;stroke-width:0.264583"
              d="m 225.86192,467.49134 73.38914,-63.57228 c 0,0 7.41008,-6.22315 9.89722,-7.77766 1.20537,-0.75338 2.23847,-1.36978 2.29578,-1.36978 0.0573,0 0.97611,-0.4009 2.04177,-0.8909 1.06565,-0.49 2.2352,-0.97373 2.59901,-1.07497 0.3638,-0.10123 0.89958,-0.28372 1.19062,-0.40554 0.88294,-0.36957 3.33287,-1.00797 5.29167,-1.3789 2.71526,-0.51419 72.01215,-0.51542 74.34791,-0.001 3.661,0.80577 5.16565,1.24652 7.67187,2.24732 10.7087,4.27624 19.71111,13.79562 24.93349,26.3653 1.26366,3.0415 2.5778,7.22566 2.96475,9.43966 0.17446,0.99824 0.4348,2.19913 0.57852,2.66864 0.14373,0.46951 0.33175,1.69375 0.41783,2.72052 1.08171,5.99122 0.58749,12.64817 -0.0148,18.31188 -0.311,3.03571 -0.98327,5.92888 -2.52643,10.87266 -1.79123,5.73851 -5.33899,12.31118 -9.27322,17.17978 -2.45875,3.04269 -7.29647,7.55384 -9.93532,9.26463 -8.20979,5.32247 -17.08987,7.43818 -25.77139,6.14009 -3.96215,-0.59243 -5.02242,-0.89158 -9.15361,-2.58267 -2.9793,-1.21957 -6.40913,-3.10971 -8.07343,-4.44917 -3.82919,-3.08183 -7.01721,-6.17136 -9.18913,-8.90526 -2.71895,-3.42246 -6.58455,-10.29197 -7.88826,-14.0181 -0.30667,-0.87649 -0.89676,-1.3843 -0.89676,-1.3843 l -36.76535,31.71197 -88.09398,-0.0323 z m 98.15664,28.90516 c 0,0 1.88943,-2.58698 18.08972,-16.52629 1.33059,-1.1449 3.29638,-2.84741 4.3684,-3.78335 1.86254,-1.62611 2.0465,-1.48467 2.0465,-1.48467 5.51119,7.85238 10.96832,15.29996 17.74505,20.11365 1.18883,0.83085 2.03491,1.7155 2.03491,1.7155 l -44.28458,-0.0348 z"
              id="path892-3"
              sodipodi:nodetypes="ccsssssscssssccsssssssscccccssccccc"/>
      <rect
              style="fill:#1a1a1a;fill-opacity:1;stroke:none;stroke-width:0.264583;stroke-opacity:1"
              id="rect915"
              width="66.863434"
              height="15.135429"
              x="236.55695"
              y="473.96243"/>
      <rect
              style="fill:#1a1a1a;fill-opacity:1;stroke:none;stroke-width:0.424182;stroke-opacity:1"
              id="rect917"
              width="52.538689"
              height="23.801819"
              x="781.9278"
              y="637.05646"
              transform="matrix(1,0,-0.7574904,0.65284631,0,0)"/>
      <path
              style="fill:none;stroke:#1a1a1a;stroke-width:6.365;stroke-linecap:round;stroke-linejoin:miter;stroke-miterlimit:4;stroke-dasharray:none;stroke-opacity:1"
              d="m 313.5244,464.53274 67.84673,-58.58632"
              id="path919"/>
      <path
              style="fill:none;stroke:#fafafa;stroke-width:9.36048;stroke-linecap:round;stroke-linejoin:miter;stroke-miterlimit:4;stroke-dasharray:none;stroke-opacity:1"
              d="M 339.54728,366.87553 V 325.29814"
              id="path921"/>
      <path
              style="fill:none;stroke:#fafafa;stroke-width:9.36048;stroke-linecap:round;stroke-linejoin:miter;stroke-miterlimit:4;stroke-dasharray:none;stroke-opacity:1"
              d="m 360.43049,372.16723 20.7887,-36.00707"
              id="path921-3"/>
      <path
              style="fill:none;stroke:#fafafa;stroke-width:9.36048;stroke-linecap:round;stroke-linejoin:miter;stroke-miterlimit:4;stroke-dasharray:none;stroke-opacity:1"
              d="M 318.66413,372.16723 297.87545,336.16016"
              id="path921-3-5"/>
    </g>
  </g>
</svg>
